<svg id="Layer_1" data-name="Layer 1" xmlns="http://www.w3.org/2000/svg" viewBox="0 0 30 30"><defs><style>.cls-1{fill:#b4bec8;}</style></defs><title>dark-icons</title><path class="cls-1" d="M24,15.9V14.1l-2.92-.73a6.17,6.17,0,0,0-.63-1.52L22,9.27,20.73,8,18.15,9.55a6.17,6.17,0,0,0-1.52-.63L15.9,6H14.1l-.73,2.92a6.17,6.17,0,0,0-1.52.63L9.27,8,8,9.27l1.55,2.58a6.17,6.17,0,0,0-.63,1.52L6,14.1v1.8l2.92.73a6.17,6.17,0,0,0,.63,1.52L8,20.73,9.27,22l2.58-1.55a6.17,6.17,0,0,0,1.52.63L14.1,24h1.8l.73-2.92a6.17,6.17,0,0,0,1.52-.63L20.73,22,22,20.73l-1.55-2.58a6.17,6.17,0,0,0,.63-1.52Zm-9,3.6A4.5,4.5,0,1,1,19.5,15,4.51,4.51,0,0,1,15,19.5Z"/></svg>