<svg id="Layer_1" data-name="Layer 1" xmlns="http://www.w3.org/2000/svg" viewBox="0 0 30 30"><defs><style>.cls-1{fill:#69cdf0;}.cls-2{fill:#1a242e;}</style></defs><title>dark-icons</title><rect class="cls-1" width="30" height="30" rx="5" ry="5"/><path class="cls-2" d="M15,11.64a2.37,2.37,0,0,0,2.41-2.32,2.41,2.41,0,0,0-4.82,0A2.37,2.37,0,0,0,15,11.64Z"/><path class="cls-2" d="M19.45,13.9l-1.59-1a.57.57,0,0,0-.84.27l-1.69,4.35a.36.36,0,0,1-.66,0L13,13.19a.57.57,0,0,0-.84-.27l-1.59,1a1.15,1.15,0,0,0-.55,1l0,.45.3,5.34A2.5,2.5,0,0,0,12.82,23h4.36a2.45,2.45,0,0,0,2.49-2.28l.3-5.33,0-.46A1.15,1.15,0,0,0,19.45,13.9Z"/></svg>