<svg id="Layer_1" data-name="Layer 1" xmlns="http://www.w3.org/2000/svg" viewBox="0 0 30 30"><defs><style>.cls-1{fill:#69cdf0;}.cls-2{fill:#1a242e;}</style></defs><title>dark-icons</title><rect class="cls-1" width="30" height="30" rx="5" ry="5"/><rect class="cls-2" x="20" y="20" width="2" height="2"/><rect class="cls-2" x="20" y="8" width="2" height="2"/><rect class="cls-2" x="20" y="12" width="2" height="6"/><rect class="cls-2" x="8" y="8" width="2" height="2"/><rect class="cls-2" x="8" y="12" width="2" height="6"/><rect class="cls-2" x="8" y="20" width="2" height="2"/><polygon class="cls-2" points="12 8 12 10 16 10 18 10 18 8 16 8 12 8"/><rect class="cls-2" x="12" y="12" width="6" height="6"/><polygon class="cls-2" points="12 20 12 22 16 22 18 22 18 20 16 20 12 20"/></svg>